<svg width="114" height="114" viewBox="0 0 114 114" fill="none" xmlns="http://www.w3.org/2000/svg">
<path d="M53.6488 0.333374L0.333252 27.2848V89.1964L61.0654 113.667H61.0898V113.655L113.667 82.6962V20.7943L53.6488 0.333374Z" fill="#DDD6FE"/>
<path d="M113.667 20.7943L53.6488 0.333374L0.333252 27.2848V89.1964L61.0654 113.667H61.0898V51.7355L61.0776 51.7306L113.667 20.7943Z" fill="#C4B5FD"/>
<path d="M61.0898 51.7354V113.667H61.0654L0.333252 89.1964V27.2896L7.47678 30.1655L61.0898 51.7354Z" fill="#8B5CF6"/>
<path d="M61.0898 51.7354V105.161L21.1348 89.0501C17.1016 87.4223 13.6469 84.6268 11.2142 81.0223C8.7815 77.4178 7.48172 73.1689 7.48169 68.8207V30.1655L61.0898 51.7354Z" fill="#A78BFA"/>
<path d="M88.1283 12.0809L87.0556 12.6659L35.1736 41.3038L35.0761 61.2164L26.8598 58.1454L21.4961 56.1225V35.82L75.5723 7.81567L88.1283 12.0809Z" fill="#5B21B6"/>
<path d="M87.1157 12.6659L35.2337 41.3039L35.1362 61.2165L26.9199 58.1455V38.5985L81.0205 10.5942L87.1157 12.6659Z" fill="#6D28D9"/>
</svg>
